<?xml version="1.0" encoding="UTF-8"?> <svg xmlns="http://www.w3.org/2000/svg" width="37" height="37" viewBox="0 0 37 37" fill="none"><g clip-path="url(#clip0_421_3676)"><path d="M18.338 12.397C12.155 12.4081 4.714 13.3287 4.38103 16.4045C4.38175 16.4091 4.41557 20.1214 4.41509 20.1259C4.43949 22.8008 11.655 24.3097 18.4317 24.3712C24.62 24.3592 32.0542 23.4401 32.3885 20.3662C32.3884 20.366 32.3544 16.6443 32.3544 16.6443C32.33 13.9683 25.1145 12.4588 18.338 12.397ZM18.3302 13.2095C26.2355 13.2397 34.9283 15.5926 30.1321 18.0456C25.3081 15.6211 11.4665 15.4739 6.62531 17.8394C1.12468 14.9065 13.0793 12.9661 18.3302 13.2095ZM29.0687 18.4853C24.257 20.3712 12.2072 20.1873 7.68118 18.2925C12.5489 16.4166 24.2185 16.5391 29.0687 18.4853ZM18.4396 23.5587C10.6712 23.4881 5.24209 21.689 5.22806 20.1186C5.22727 20.1175 5.20759 17.8735 5.20731 17.8722C5.53742 18.1507 5.95783 18.4095 6.45433 18.648C12.144 21.2407 26.5307 21.651 31.5552 18.0963C31.5552 18.0961 31.5759 20.3739 31.5759 20.3739C31.5782 20.5944 31.4592 20.8261 31.2233 21.062C29.723 22.5623 24.3467 23.6123 18.4396 23.5587Z" fill="#FAFAFA"></path><path d="M6.20152 19.1057C5.38176 19.1163 5.41002 20.3236 6.21279 20.3403C7.03254 20.3297 7.00427 19.1224 6.20152 19.1057Z" fill="#FAFAFA"></path><path d="M7.9147 20.8934C7.93154 21.6963 9.13872 21.7243 9.14929 20.9047C9.13246 20.1018 7.92523 20.0738 7.9147 20.8934Z" fill="#FAFAFA"></path><path d="M10.3895 21.5333C10.4063 22.3362 11.6135 22.3642 11.624 21.5446C11.6072 20.7417 10.4 20.7137 10.3895 21.5333Z" fill="#FAFAFA"></path><path d="M12.862 21.9215C12.8788 22.7244 14.086 22.7524 14.0965 21.9327C14.0797 21.1299 12.8725 21.1018 12.862 21.9215Z" fill="#FAFAFA"></path><path d="M15.3331 22.1681C15.3499 22.971 16.5572 22.999 16.5677 22.1793C16.5509 21.3765 15.3437 21.3484 15.3331 22.1681Z" fill="#FAFAFA"></path><path d="M17.8028 22.2513C17.8197 23.0542 19.0269 23.0822 19.0374 22.2626C19.0206 21.4597 17.8134 21.4317 17.8028 22.2513Z" fill="#FAFAFA"></path><path d="M30.5584 19.1743C29.7386 19.185 29.7668 20.3922 30.5696 20.4089C31.3894 20.3982 31.3611 19.191 30.5584 19.1743Z" fill="#FAFAFA"></path><path d="M27.6678 21.0734C27.6846 21.8762 28.8919 21.9043 28.9024 21.0846C28.8856 20.2817 27.6784 20.2537 27.6678 21.0734Z" fill="#FAFAFA"></path><path d="M25.2043 21.6683C25.2211 22.4712 26.4284 22.4993 26.4389 21.6795C26.4221 20.8767 25.2149 20.8487 25.2043 21.6683Z" fill="#FAFAFA"></path><path d="M22.7385 22.0113C22.7553 22.8142 23.9626 22.8423 23.9731 22.0226C23.9563 21.2197 22.749 21.1917 22.7385 22.0113Z" fill="#FAFAFA"></path><path d="M20.2714 22.213C20.2882 23.0159 21.4955 23.0439 21.506 22.2242C21.4892 21.4214 20.2819 21.3934 20.2714 22.213Z" fill="#FAFAFA"></path></g><defs><clipPath id="clip0_421_3676"><rect width="26" height="26" fill="white" transform="translate(0 18.3848) rotate(-45)"></rect></clipPath></defs></svg> 