<?xml version="1.0" encoding="UTF-8"?> <svg xmlns="http://www.w3.org/2000/svg" width="24" height="29" viewBox="0 0 24 29" fill="none"><g clip-path="url(#clip0_419_3628)"><path d="M3.5121 29.0001C5.44769 29.0001 7.02421 26.9381 7.02421 24.4034C7.02421 21.4846 6.11345 13.777 4.36675 11.794C4.90348 11.4909 5.26816 10.9184 5.26816 10.2574C5.26816 9.40059 4.66036 8.68501 3.85621 8.52306C3.83751 7.90351 3.77392 7.19358 3.70099 6.4441C3.51023 4.43669 3.2746 1.9378 4.07314 1.05085C4.28073 0.821109 4.55751 0.708122 4.91657 0.708122C5.85725 0.708122 6.03491 2.17319 6.27055 4.76436C6.53049 7.65306 6.88395 11.6133 9.20104 14.7129C9.34691 14.9068 9.58068 14.871 9.69288 14.7844C9.85184 14.6601 9.8799 14.4455 9.76395 14.2892C7.57216 11.3458 7.23927 7.66059 6.96997 4.70033C6.73247 2.07526 6.54545 0.00195312 4.91657 0.00195312C4.35553 0.00195312 3.89735 0.194031 3.55325 0.574421C2.54525 1.69299 2.78649 4.25215 3.00156 6.51189C3.07075 7.24442 3.13434 7.93552 3.15304 8.52682C2.35636 8.69442 1.75605 9.40624 1.75605 10.2574C1.75605 10.9203 2.12073 11.4946 2.65745 11.7959C0.910753 13.7807 0 21.4846 0 24.4034C0 26.9381 1.57465 29.0001 3.5121 29.0001ZM2.45922 10.2555C2.45922 9.66988 2.93236 9.19533 3.5121 9.19533C4.09184 9.19533 4.56499 9.67176 4.56499 10.2555C4.56499 10.8393 4.09184 11.3157 3.5121 11.3157C2.93236 11.3157 2.45922 10.8393 2.45922 10.2555ZM3.5121 12.0238C4.752 12.0238 6.32104 19.6975 6.32104 24.4015C6.32104 26.5464 5.06057 28.292 3.5121 28.292C1.96364 28.292 0.703169 26.5464 0.703169 24.4015C0.703169 19.6975 2.27221 12.0238 3.5121 12.0238Z" fill="#FAFAFA"></path><path d="M16.7121 28.9981C18.6477 28.9981 20.2242 26.9361 20.2242 24.4014C20.2242 21.4826 19.3135 13.775 17.5668 11.7921C18.1035 11.4889 18.4682 10.9164 18.4682 10.2555C18.4682 9.39864 17.8604 8.68305 17.0562 8.5211C17.0375 7.90156 16.9739 7.19162 16.901 6.44214C16.7102 4.43474 16.4746 1.93584 17.2732 1.0489C17.4807 0.819156 17.7575 0.706169 18.1166 0.706169C19.0573 0.706169 19.2349 2.17123 19.4706 4.7624C19.7305 7.6511 20.084 11.6113 22.4011 14.7109C22.5469 14.9049 22.7807 14.8691 22.8929 14.7825C23.0519 14.6582 23.0799 14.4435 22.964 14.2872C20.7722 11.3439 20.4393 7.65864 20.17 4.69838C19.9325 2.07331 19.7455 0 18.1166 0C17.5555 0 17.0974 0.192078 16.7533 0.572468C15.7453 1.69104 15.9865 4.2502 16.2016 6.50994C16.2708 7.24247 16.3343 7.93357 16.3531 8.52487C15.5564 8.69247 14.9561 9.40429 14.9561 10.2555C14.9561 10.9183 15.3207 11.4927 15.8575 11.794C14.1108 13.7788 13.2 21.4826 13.2 24.4014C13.2 26.9361 14.7747 28.9981 16.7121 28.9981ZM15.6592 10.2536C15.6592 9.66792 16.1324 9.19338 16.7121 9.19338C17.2919 9.19338 17.765 9.66981 17.765 10.2536C17.765 10.8373 17.2919 11.3138 16.7121 11.3138C16.1324 11.3138 15.6592 10.8373 15.6592 10.2536ZM16.7121 12.0218C17.952 12.0218 19.5211 19.6955 19.5211 24.3995C19.5211 26.5444 18.2606 28.2901 16.7121 28.2901C15.1636 28.2901 13.9032 26.5444 13.9032 24.3995C13.9032 19.6955 15.4722 12.0218 16.7121 12.0218Z" fill="#FAFAFA"></path><path d="M3.51209 27.5857C3.70658 27.5857 3.86367 27.4276 3.86367 27.2317C3.86367 27.0359 3.70658 26.8777 3.51209 26.8777C2.92487 26.8777 2.10762 25.9361 2.10762 24.4014C2.10762 24.2074 1.95053 24.0474 1.75603 24.0474C1.56154 24.0474 1.40445 24.2055 1.40445 24.4014C1.40445 26.3052 2.49287 27.5839 3.51209 27.5839V27.5857Z" fill="#FAFAFA"></path><path d="M16.7121 27.5838C16.9066 27.5838 17.0637 27.4256 17.0637 27.2298C17.0637 27.0339 16.9066 26.8757 16.7121 26.8757C16.1249 26.8757 15.3076 25.9342 15.3076 24.3994C15.3076 24.2055 15.1505 24.0454 14.956 24.0454C14.7616 24.0454 14.6045 24.2036 14.6045 24.3994C14.6045 26.3033 15.6929 27.5819 16.7121 27.5819V27.5838Z" fill="#FAFAFA"></path></g><defs><clipPath id="clip0_419_3628"><rect width="24" height="29" fill="white"></rect></clipPath></defs></svg> 