<?xml version="1.0" encoding="UTF-8"?> <svg xmlns="http://www.w3.org/2000/svg" width="24" height="24" viewBox="0 0 24 24" fill="none"><g clip-path="url(#clip0_419_3652)"><path d="M20.1956 0H3.80547C3.68858 0 3.58261 0.0701299 3.53586 0.177662L0.0231279 8.37195C-0.01895 8.47013 -0.00492406 8.58234 0.0605305 8.66649L11.7675 23.8862C11.8236 23.9579 11.9094 24 11.9998 24C12.0901 24 12.1759 23.9579 12.232 23.8862L23.939 8.66649C24.0029 8.58234 24.0185 8.47013 23.9748 8.37195L20.4636 0.177662C20.4185 0.0701299 20.3109 0 20.1956 0ZM19.7514 0.585974L16.6455 7.83273L12.5047 0.585974H19.7514ZM16.1795 8.19584H7.82157L11.9998 0.882078L16.1779 8.19429L16.1795 8.19584ZM11.4948 0.585974L7.35404 7.83273L4.24962 0.585974H11.4964H11.4948ZM3.80391 1.03636L6.87248 8.19584H0.736894L3.80547 1.03636H3.80391ZM0.886504 8.78026H7.10001L11.2423 22.2436L0.886504 8.78026ZM11.9998 22.7127L7.71248 8.78026H16.2855L11.9998 22.7127ZM12.7556 22.2436L16.8995 8.78026H23.113L12.7556 22.2436ZM23.2626 8.19429H17.1255L20.194 1.03481L23.2626 8.19429Z" fill="#FAFAFA"></path></g><defs><clipPath id="clip0_419_3652"><rect width="24" height="24" fill="white"></rect></clipPath></defs></svg> 