<?xml version="1.0" encoding="UTF-8"?> <svg xmlns="http://www.w3.org/2000/svg" width="24" height="31" viewBox="0 0 24 31" fill="none"><g clip-path="url(#clip0_419_3633)"><path d="M6.96828 7.93922V8.64578C2.85724 10.5078 0 14.572 0 19.2804C0 25.7421 5.38345 31 12 31C18.6166 31 24 25.7421 24 19.2804C24 14.572 21.1428 10.5078 17.0317 8.64578V7.93922C17.0317 7.0676 16.4255 6.33487 15.6021 6.11747L17.7145 3.64552C17.8303 3.51065 17.8345 3.3174 17.7269 3.17649L15.4076 0.150974C15.3352 0.0563636 15.2193 0 15.0972 0H8.90276C8.78069 0 8.6669 0.0563636 8.59241 0.150974L6.26897 3.17448C6.16138 3.31539 6.16759 3.50864 6.28138 3.64351L8.39379 6.11545C7.57241 6.33286 6.96414 7.0676 6.96414 7.93721L6.96828 7.93922ZM23.2262 19.2804C23.2262 25.3254 18.1903 30.2431 12 30.2431C5.80966 30.2431 0.773793 25.3254 0.773793 19.2804C0.773793 13.2354 5.80966 8.31766 12 8.31766C18.1903 8.31766 23.2262 13.2354 23.2262 19.2804ZM14.6524 6.04903H13.049L13.8269 3.78039H16.591L14.6524 6.04903ZM15.1634 1.09506L16.6448 3.02552H14.1745L15.1634 1.09506ZM14.4703 0.756883L13.5476 2.55851L12.6248 0.756883H14.4683H14.4703ZM12.9228 3.02552H11.0793L12.0021 1.2239L12.9248 3.02552H12.9228ZM13.0117 3.7824L12.2338 6.05104H11.7683L10.9903 3.7824H13.0117ZM11.3752 0.758896L10.4524 2.56052L9.52966 0.758896H11.3731H11.3752ZM8.83862 1.09708L9.82759 3.02753H7.35724L8.83862 1.09708ZM7.40897 3.7824H10.1731L10.951 6.05104H9.34759L7.40897 3.7824ZM7.74207 7.94123C7.74207 7.3152 8.26345 6.80792 8.90276 6.80792H15.0972C15.7386 6.80792 16.2579 7.31721 16.2579 7.94123V8.32773C14.9338 7.83455 13.5 7.56279 12 7.56279C10.5 7.56279 9.06621 7.83455 7.74207 8.32773V7.94123Z" fill="#FAFAFA"></path><path d="M1.54758 19.2804C1.54758 24.9087 6.23585 29.4882 12 29.4882C17.7641 29.4882 22.4524 24.9087 22.4524 19.2804C22.4524 13.6521 17.7641 9.07251 12 9.07251C6.23585 9.07251 1.54758 13.6521 1.54758 19.2804ZM21.6765 19.2804C21.6765 24.492 17.3359 28.7313 12 28.7313C6.66413 28.7313 2.32344 24.492 2.32344 19.2804C2.32344 14.0687 6.66413 9.82939 12 9.82939C17.3359 9.82939 21.6765 14.0687 21.6765 19.2804Z" fill="#FAFAFA"></path></g><defs><clipPath id="clip0_419_3633"><rect width="24" height="31" fill="white"></rect></clipPath></defs></svg> 